<svg width="262" height="416" viewBox="0 0 262 416" fill="none" xmlns="http://www.w3.org/2000/svg">
<g clip-path="url(#clip0_10_636)">
<rect x="60.5" y="40.0194" width="80" height="80" rx="8" fill="#0FBCF9" fill-opacity="0.3"/>
<path d="M82.088 87.1674C88.872 82.3247 92.264 78.4741 92.264 75.6154C92.264 73.8661 91.5067 72.9914 89.992 72.9914C89.1387 72.9914 88.5093 73.2901 88.104 73.8874C87.72 74.4847 87.5067 75.4127 87.464 76.6714H82.12C82.248 73.9194 83.08 71.8501 84.616 70.4634C86.152 69.0767 88.0933 68.3834 90.44 68.3834C92.8933 68.3834 94.7387 69.0021 95.976 70.2394C97.2347 71.4767 97.864 73.0874 97.864 75.0714C97.864 77.2687 97.0213 79.4234 95.336 81.5354C93.6507 83.6261 91.6347 85.3967 89.288 86.8474H98.216V91.2634H82.088V87.1674ZM102.613 88.3834C101.184 86.3141 100.469 83.5087 100.469 79.9674C100.469 76.4474 101.184 73.6634 102.613 71.6154C104.042 69.5461 106.325 68.5114 109.461 68.5114C112.576 68.5114 114.848 69.5461 116.277 71.6154C117.728 73.6634 118.453 76.4474 118.453 79.9674C118.453 83.5087 117.728 86.3141 116.277 88.3834C114.848 90.4527 112.576 91.4874 109.461 91.4874C106.325 91.4874 104.042 90.4527 102.613 88.3834ZM112.277 84.6714C112.768 83.5621 113.013 81.9941 113.013 79.9674C113.013 77.9407 112.768 76.3941 112.277 75.3274C111.808 74.2394 110.869 73.6954 109.461 73.6954C108.032 73.6954 107.072 74.2394 106.581 75.3274C106.09 76.4154 105.845 77.9621 105.845 79.9674C105.845 81.9941 106.09 83.5621 106.581 84.6714C107.072 85.7594 108.032 86.3034 109.461 86.3034C110.869 86.3034 111.808 85.7594 112.277 84.6714Z" fill="#032733"/>
<rect x="78.2019" y="124.019" width="3" height="50" rx="1.5" transform="rotate(40 78.2019 124.019)" fill="#032733"/>
<rect x="120.5" y="125.948" width="3" height="50" rx="1.5" transform="rotate(-40 120.5 125.948)" fill="#032733"/>
<path d="M32.088 215.398C38.872 210.555 42.264 206.705 42.264 203.846C42.264 202.097 41.5067 201.222 39.992 201.222C39.1387 201.222 38.5093 201.521 38.104 202.118C37.72 202.715 37.5067 203.643 37.464 204.902H32.12C32.248 202.15 33.08 200.081 34.616 198.694C36.152 197.307 38.0933 196.614 40.44 196.614C42.8933 196.614 44.7387 197.233 45.976 198.47C47.2347 199.707 47.864 201.318 47.864 203.302C47.864 205.499 47.0213 207.654 45.336 209.766C43.6507 211.857 41.6347 213.627 39.288 215.078H48.216V219.494H32.088V215.398Z" fill="#032733"/>
<rect x="2.5" y="170.25" width="76" height="76" rx="38" stroke="#0FBCF9" stroke-width="4"/>
<path d="M91.82 219.75L98.284 211.014L91.964 202.47H95.932L100.236 208.406L104.492 202.47H108.46L102.14 211.014L108.62 219.75H104.636L100.236 213.622L95.804 219.75H91.82Z" fill="#032733"/>
<rect x="120.5" y="168.25" width="80" height="80" rx="8" fill="#0FBCF9" fill-opacity="0.3"/>
<path d="M144.852 202.246V197.126H154.004V219.75H148.244V202.246H144.852ZM159.394 216.614C157.965 214.545 157.25 211.739 157.25 208.198C157.25 204.678 157.965 201.894 159.394 199.846C160.824 197.777 163.106 196.742 166.242 196.742C169.357 196.742 171.629 197.777 173.058 199.846C174.509 201.894 175.234 204.678 175.234 208.198C175.234 211.739 174.509 214.545 173.058 216.614C171.629 218.683 169.357 219.718 166.242 219.718C163.106 219.718 160.824 218.683 159.394 216.614ZM169.058 212.902C169.549 211.793 169.794 210.225 169.794 208.198C169.794 206.171 169.549 204.625 169.058 203.558C168.589 202.47 167.65 201.926 166.242 201.926C164.813 201.926 163.853 202.47 163.362 203.558C162.872 204.646 162.626 206.193 162.626 208.198C162.626 210.225 162.872 211.793 163.362 212.902C163.853 213.99 164.813 214.534 166.242 214.534C167.65 214.534 168.589 213.99 169.058 212.902Z" fill="#032733"/>
<rect x="138.202" y="252.25" width="3" height="50" rx="1.5" transform="rotate(40 138.202 252.25)" fill="#032733"/>
<rect x="180.5" y="254.178" width="3" height="50" rx="1.5" transform="rotate(-40 180.5 254.178)" fill="#032733"/>
<path d="M92.088 343.629C98.872 338.786 102.264 334.935 102.264 332.077C102.264 330.327 101.507 329.453 99.992 329.453C99.1387 329.453 98.5093 329.751 98.104 330.349C97.72 330.946 97.5067 331.874 97.464 333.133H92.12C92.248 330.381 93.08 328.311 94.616 326.925C96.152 325.538 98.0933 324.845 100.44 324.845C102.893 324.845 104.739 325.463 105.976 326.701C107.235 327.938 107.864 329.549 107.864 331.533C107.864 333.73 107.021 335.885 105.336 337.997C103.651 340.087 101.635 341.858 99.288 343.309H108.216V347.725H92.088V343.629Z" fill="#032733"/>
<rect x="62.5" y="298.481" width="76" height="76" rx="38" stroke="#0FBCF9" stroke-width="4"/>
<path d="M151.82 347.981L158.284 339.245L151.964 330.701H155.932L160.236 336.637L164.492 330.701H168.46L162.14 339.245L168.62 347.981H164.636L160.236 341.853L155.804 347.981H151.82Z" fill="#032733"/>
<path d="M228.048 329.613H217.872V334.189C218.32 333.677 218.939 333.282 219.728 333.005C220.539 332.706 221.413 332.557 222.352 332.557C223.867 332.557 225.136 332.898 226.16 333.581C227.184 334.242 227.941 335.138 228.432 336.269C228.923 337.399 229.168 338.647 229.168 340.013C229.168 342.487 228.475 344.45 227.088 345.901C225.701 347.33 223.749 348.045 221.232 348.045C219.525 348.045 218.043 347.746 216.784 347.149C215.525 346.53 214.555 345.677 213.872 344.589C213.189 343.501 212.827 342.242 212.784 340.813H218.128C218.235 341.538 218.523 342.135 218.992 342.605C219.483 343.074 220.144 343.309 220.976 343.309C221.936 343.309 222.651 342.999 223.12 342.381C223.611 341.762 223.856 340.941 223.856 339.917C223.856 338.935 223.6 338.178 223.088 337.645C222.576 337.111 221.861 336.845 220.944 336.845C220.24 336.845 219.653 337.005 219.184 337.325C218.715 337.623 218.395 338.018 218.224 338.509H212.912V324.813H228.048V329.613Z" fill="#032733"/>
<rect x="182.5" y="298.481" width="76" height="76" rx="38" stroke="#0FBCF9" stroke-width="4"/>
</g>
<defs>
<clipPath id="clip0_10_636">
<rect width="262" height="416" fill="white"/>
</clipPath>
</defs>
</svg>
